<?xml version="1.0" encoding="UTF-8"?>
<!DOCTYPE svg PUBLIC "-//W3C//DTD SVG 1.1//EN" "http://www.w3.org/Graphics/SVG/1.1/DTD/svg11.dtd">
<!-- Creator: CorelDRAW X7 -->
<svg xmlns="http://www.w3.org/2000/svg" xml:space="preserve" width="53.5294mm" height="16.9334mm" version="1.1" style="shape-rendering:geometricPrecision; text-rendering:geometricPrecision; image-rendering:optimizeQuality; fill-rule:evenodd; clip-rule:evenodd"
viewBox="0 0 2308 730"
 xmlns:xlink="http://www.w3.org/1999/xlink">
 <defs>
  <style type="text/css">
   <![CDATA[
    .fil0 {fill:#333333}
   ]]>
  </style>
 </defs>
 <g id="Слой_x0020_1">
  <metadata id="CorelCorpID_0Corel-Layer"/>
  <path class="fil0" d="M611 533c-11,37 -29,73 -54,110 -38,57 -75,86 -113,86 -14,0 -34,-5 -61,-14 -25,-10 -47,-14 -66,-14 -18,0 -39,4 -63,14 -23,10 -43,15 -57,15 -45,0 -89,-38 -133,-114 -43,-76 -64,-150 -64,-220 0,-67 17,-122 50,-164 33,-42 74,-63 124,-63 21,0 47,4 78,13 30,8 50,13 60,13 13,0 34,-5 63,-15 30,-10 55,-15 76,-15 35,0 66,10 93,29 16,10 31,25 46,43 -23,20 -40,37 -50,52 -19,28 -28,58 -28,91 0,36 10,69 30,98 20,29 43,47 69,55zm-374 1c3,3 5,7 5,11 0,4 -2,7 -5,10 -3,3 -6,5 -10,5 -5,0 -8,-2 -11,-5 -3,-3 -5,-6 -5,-10 0,-4 2,-8 5,-11 3,-3 6,-4 11,-4 4,0 7,1 10,4zm246 25c0,19 -6,34 -17,45 -12,11 -27,16 -46,16l-206 0c-19,0 -34,-5 -46,-16 -11,-11 -17,-26 -17,-45 0,-11 1,-21 1,-31 1,-10 3,-21 6,-32 3,-12 7,-23 11,-32 5,-9 11,-17 19,-24 9,-7 18,-12 29,-14 -4,8 -6,18 -6,28l0 48c-9,3 -16,9 -21,17 -6,7 -9,16 -9,26 0,12 5,23 14,32 8,8 19,13 32,13 12,0 23,-5 32,-13 8,-9 13,-20 13,-32 0,-10 -3,-19 -9,-26 -5,-8 -12,-14 -21,-17l0 -48c0,-10 2,-17 5,-22 21,17 44,25 70,25 26,0 49,-8 70,-25 3,5 5,12 5,22l0 15c-16,0 -30,6 -42,18 -12,12 -18,26 -18,43l0 21c-5,4 -7,10 -7,16 0,7 2,12 6,16 5,5 10,7 16,7 6,0 12,-2 16,-7 5,-4 7,-9 7,-16 0,-6 -3,-12 -8,-16l0 -21c0,-9 3,-16 9,-22 6,-6 13,-9 21,-9 9,0 16,3 22,9 6,6 9,13 9,22l0 21c-5,4 -8,10 -8,16 0,7 2,12 7,16 4,5 9,7 16,7 6,0 11,-2 16,-7 4,-4 6,-9 6,-16 0,-6 -2,-12 -7,-16l0 -21c0,-11 -3,-21 -8,-30 -6,-10 -13,-17 -22,-22 0,-2 0,-5 0,-10 0,-6 0,-9 0,-12 0,-2 -1,-5 -1,-10 0,-4 -1,-7 -2,-11 0,-3 -1,-6 -3,-9 11,2 20,7 29,14 8,7 14,15 19,24 4,9 8,20 11,32 3,11 5,22 6,32 0,10 1,20 1,31zm-102 -274c18,17 26,39 26,64 0,25 -8,46 -26,64 -18,17 -39,26 -64,26 -25,0 -46,-9 -64,-26 -18,-18 -26,-39 -26,-64 0,-25 8,-47 26,-64 18,-18 39,-27 64,-27 25,0 46,9 64,27zm65 -267c0,18 -4,38 -13,60 -8,22 -22,42 -40,61 -16,15 -32,26 -48,31 -11,3 -26,6 -45,8 1,-44 12,-81 34,-113 21,-31 58,-53 110,-65 0,1 0,2 1,5 0,2 0,4 1,5 0,1 0,2 0,4 0,2 0,3 0,4z"/>
  <path class="fil0" d="M795 511l-49 0 0 -193 49 0 0 193zm-25 -274c9,0 15,3 20,8 5,5 8,11 8,19 0,7 -3,14 -8,19 -5,5 -12,7 -20,7 -8,0 -14,-2 -19,-7 -5,-5 -8,-12 -8,-19 0,-8 3,-14 8,-19 5,-5 12,-8 19,-8zm63 152l101 0 0 33 -101 0 0 -33zm141 122l0 -263c21,-4 46,-6 74,-6 38,0 65,7 83,21 15,13 23,31 23,54 0,17 -5,31 -15,42 -9,12 -20,20 -34,25l0 1c18,7 30,24 37,52 12,45 19,70 21,74l-50 0c-5,-10 -11,-31 -18,-63 -4,-17 -9,-29 -16,-36 -7,-7 -18,-10 -32,-11l-24 0 0 110 -49 0zm49 -230l0 85 29 0c16,0 29,-4 38,-12 10,-8 15,-19 15,-32 0,-14 -5,-25 -14,-32 -9,-8 -22,-11 -38,-11 -14,0 -24,1 -30,2zm340 147l-129 0c0,17 6,29 17,38 11,8 25,12 42,12 19,0 37,-3 54,-9l7 34c-19,8 -42,12 -68,12 -31,0 -55,-9 -73,-26 -17,-18 -26,-42 -26,-72 0,-28 8,-53 25,-73 17,-20 40,-30 69,-30 15,0 28,2 39,8 12,6 21,13 27,23 6,9 10,19 13,30 3,10 5,21 5,33 0,8 -1,14 -2,20zm-129 -34l84 0c1,-12 -2,-22 -8,-32 -7,-10 -17,-15 -32,-15 -13,0 -24,5 -31,15 -8,9 -12,20 -13,32zm305 75l7 36c-15,7 -33,10 -55,10 -30,0 -54,-9 -72,-27 -18,-18 -28,-42 -28,-72 0,-30 10,-54 29,-73 20,-20 46,-29 79,-29 18,0 34,3 47,8l-9 37c-10,-5 -22,-7 -36,-7 -19,0 -33,6 -44,18 -11,11 -16,26 -16,44 0,20 6,35 17,46 11,11 25,17 43,17 13,0 26,-3 38,-8zm127 -155c28,0 52,9 69,27 18,19 27,42 27,72 0,33 -10,58 -29,76 -20,18 -43,26 -70,26 -28,0 -51,-9 -70,-27 -18,-17 -27,-42 -27,-72 0,-31 9,-56 28,-75 18,-18 42,-27 72,-27zm-1 35c-16,0 -29,6 -37,19 -8,13 -12,29 -12,47 0,19 5,34 13,47 9,12 21,18 35,18 14,0 26,-6 34,-18 9,-13 13,-29 13,-48 0,-17 -3,-32 -11,-45 -8,-14 -20,-20 -35,-20zm112 -31l53 0 31 98c5,14 9,31 13,48l1 0c3,-11 7,-27 13,-48l31 -98 51 0 -73 193 -48 0 -72 -193zm382 110l-129 0c0,17 6,29 17,38 11,8 25,12 42,12 19,0 37,-3 54,-9l7 34c-19,8 -42,12 -68,12 -31,0 -55,-9 -73,-26 -17,-18 -26,-42 -26,-72 0,-28 8,-53 25,-73 17,-20 40,-30 69,-30 15,0 28,2 39,8 12,6 20,13 27,23 6,9 10,19 13,30 3,10 4,21 4,33 0,8 0,14 -1,20zm-129 -34l84 0c1,-12 -2,-22 -9,-32 -6,-10 -16,-15 -31,-15 -13,0 -24,5 -31,15 -8,9 -12,20 -13,32zm170 117l0 -131c0,-26 -1,-47 -2,-62l42 0 2 36 1 0c5,-13 12,-23 22,-30 10,-7 20,-10 31,-10 4,0 8,0 12,1l0 45c-5,0 -9,-1 -15,-1 -11,0 -21,4 -29,10 -7,7 -12,16 -14,27 -1,4 -2,9 -2,15l0 100 -48 0z"/>
  <path class="fil0" d="M933 664l3 9c-6,2 -13,4 -23,4 -12,0 -22,-4 -30,-12 -8,-7 -12,-18 -12,-31 0,-14 5,-24 13,-32 8,-9 19,-13 32,-13 8,0 15,2 20,4l-3 9c-5,-2 -10,-4 -17,-4 -10,0 -18,4 -24,10 -6,6 -9,14 -9,25 0,11 3,19 9,25 5,6 13,9 23,9 8,0 14,-1 18,-3zm63 -17l-43 0c0,7 2,12 6,16 4,3 9,5 15,5 7,0 12,-1 17,-3l2 8c-6,2 -13,4 -20,4 -10,0 -17,-3 -22,-9 -6,-5 -8,-13 -8,-22 0,-9 2,-17 7,-23 6,-7 13,-10 21,-10 5,0 9,1 12,3 4,2 7,4 8,7 2,3 3,7 4,10 1,3 1,6 1,9 0,2 0,4 0,5zm-43 -8l33 0c0,-4 -1,-8 -4,-12 -2,-4 -6,-6 -12,-6 -5,0 -9,2 -12,6 -2,3 -4,7 -5,12zm57 61l0 -66c0,-5 0,-12 0,-19l9 0 1 10 0 0c5,-8 12,-12 22,-12 7,0 14,3 18,9 5,6 8,13 8,22 0,10 -3,19 -8,24 -6,6 -12,9 -20,9 -4,0 -8,-1 -11,-3 -3,-1 -6,-4 -8,-7l0 0 0 33 -11 0zm11 -60l0 11c0,1 0,3 0,4 1,4 4,7 7,10 3,2 6,3 10,3 6,0 10,-2 14,-6 3,-5 5,-10 5,-17 0,-7 -2,-12 -5,-16 -3,-5 -8,-7 -14,-7 -3,0 -7,1 -10,4 -3,2 -5,6 -6,10 -1,1 -1,3 -1,4zm60 35l0 -60c6,-1 12,-1 20,-1 18,0 27,5 27,15 0,4 -1,7 -4,9 -2,2 -5,4 -9,5l0 0c5,1 9,2 11,5 3,2 5,6 5,10 0,12 -11,18 -33,18 -4,0 -10,0 -17,-1zm11 -53l0 18 8 0c5,0 9,-1 12,-2 3,-2 5,-4 5,-8 0,-5 -6,-8 -17,-8 -2,0 -5,0 -8,0zm0 25l0 21c3,0 6,1 9,1 5,0 9,-1 13,-3 3,-1 5,-4 5,-8 0,-4 -2,-7 -5,-8 -3,-2 -8,-3 -14,-3l-8 0zm52 -32l11 0 0 25c0,8 -1,16 -1,25l0 0c5,-9 8,-16 10,-19l19 -31 13 0 0 60 -10 0 0 -25c0,-7 0,-16 0,-25l0 0c-4,8 -8,14 -10,19 -2,3 -6,9 -10,16 -5,8 -8,13 -9,15l-13 0 0 -60zm112 50l2 8c-5,3 -11,4 -18,4 -9,0 -16,-3 -22,-9 -5,-5 -8,-13 -8,-22 0,-10 3,-18 9,-24 6,-6 14,-9 23,-9 7,0 12,1 16,4l-3 8c-3,-2 -8,-3 -13,-3 -6,0 -11,2 -15,7 -4,4 -6,10 -6,16 0,7 2,13 6,17 4,4 9,6 15,6 5,0 9,-1 14,-3zm14 -50l11 0 0 24 29 0 0 -24 11 0 0 60 -11 0 0 -27 -29 0 0 27 -11 0 0 -60zm69 0l11 0 0 20c3,0 6,-1 10,-1 7,0 13,2 18,5 6,4 8,9 8,16 0,6 -2,10 -6,14 -6,5 -14,7 -25,7 -5,0 -11,0 -16,-1l0 -60zm11 28l0 25c2,0 4,0 7,0 5,0 9,-1 13,-3 3,-2 5,-5 5,-10 0,-4 -2,-8 -5,-10 -3,-2 -7,-3 -12,-3 -3,0 -6,1 -8,1zm44 -28l11 0 0 60 -11 0 0 -60zm28 0l11 0 0 25c0,8 0,16 -1,25l1 0c4,-9 8,-16 10,-19l19 -31 13 0 0 60 -11 0 0 -25c0,-7 0,-16 1,-25l-1 0c-4,8 -7,14 -10,19 -2,3 -5,9 -10,16 -4,8 -7,13 -9,15l-13 0 0 -60zm10 -25l8 0c0,3 1,5 3,7 1,1 3,2 5,2 5,0 8,-3 9,-9l8 0c-1,5 -2,9 -5,11 -3,3 -7,4 -12,4 -5,0 -9,-1 -12,-4 -2,-3 -4,-7 -4,-11zm87 1l11 0 0 75 39 0 0 -75 11 0 0 75 8 1 -1 29 -8 0 -1 -21 -59 0 0 -84zm130 56l-42 0c0,7 2,12 6,16 3,3 8,5 14,5 7,0 13,-1 17,-3l2 8c-5,2 -12,4 -20,4 -9,0 -17,-3 -22,-9 -5,-5 -8,-13 -8,-22 0,-9 3,-17 8,-23 5,-7 12,-10 21,-10 4,0 8,1 12,3 3,2 6,4 8,7 1,3 3,7 4,10 0,3 1,6 1,9 0,2 0,4 -1,5zm-42 -8l32 0c0,-4 -1,-8 -3,-12 -3,-4 -7,-6 -12,-6 -5,0 -9,2 -12,6 -3,3 -5,7 -5,12zm56 -24l11 0 0 24 29 0 0 -24 11 0 0 60 -11 0 0 -27 -29 0 0 27 -11 0 0 -60zm61 0l49 0 0 8 -19 0 0 52 -11 0 0 -52 -19 0 0 -8zm59 85l0 -66c0,-5 -1,-12 -1,-19l10 0 0 10 1 0c4,-8 12,-12 21,-12 8,0 14,3 19,9 5,6 7,13 7,22 0,10 -2,19 -8,24 -5,6 -12,9 -20,9 -4,0 -7,-1 -11,-3 -3,-1 -5,-4 -7,-7l-1 0 0 33 -10 0zm10 -60l0 11c0,1 1,3 1,4 1,4 3,7 6,10 3,2 7,3 11,3 5,0 10,-2 13,-6 3,-5 5,-10 5,-17 0,-7 -2,-12 -5,-16 -3,-5 -7,-7 -13,-7 -4,0 -7,1 -11,4 -3,2 -5,6 -6,10 0,1 -1,3 -1,4zm132 9l-30 0 -9 26 -11 0 29 -84 13 0 29 84 -12 0 -9 -26zm-28 -9l26 0 -9 -24c-1,-4 -2,-9 -4,-16l0 0c-2,8 -4,13 -5,16l-8 24zm60 60l0 -66c0,-5 0,-12 0,-19l10 0 0 10 1 0c4,-8 11,-12 21,-12 8,0 14,3 19,9 5,6 7,13 7,22 0,10 -3,19 -8,24 -5,6 -12,9 -20,9 -4,0 -7,-1 -11,-3 -3,-1 -6,-4 -7,-7l-1 0 0 33 -11 0zm11 -60l0 11c0,1 0,3 1,4 1,4 3,7 6,10 3,2 6,3 10,3 6,0 11,-2 14,-6 3,-5 5,-10 5,-17 0,-7 -2,-12 -5,-16 -3,-5 -8,-7 -13,-7 -4,0 -8,1 -11,4 -3,2 -5,6 -6,10 0,1 -1,3 -1,4zm61 60l0 -66c0,-5 0,-12 -1,-19l10 0 1 10 0 0c5,-8 12,-12 22,-12 7,0 13,3 18,9 5,6 8,13 8,22 0,10 -3,19 -8,24 -6,6 -12,9 -20,9 -4,0 -8,-1 -11,-3 -3,-1 -6,-4 -8,-7l0 0 0 33 -11 0zm11 -60l0 11c0,1 0,3 0,4 1,4 3,7 6,10 4,2 7,3 11,3 6,0 10,-2 14,-6 3,-5 4,-10 4,-17 0,-7 -1,-12 -4,-16 -4,-5 -8,-7 -14,-7 -4,0 -7,1 -10,4 -3,2 -5,6 -6,10 -1,1 -1,3 -1,4zm60 35l0 -89 12 0 0 89 -12 0zm79 -28l-43 0c0,7 2,12 6,16 4,3 9,5 15,5 7,0 12,-1 17,-3l2 8c-6,2 -13,4 -20,4 -10,0 -17,-3 -22,-9 -6,-5 -8,-13 -8,-22 0,-9 2,-17 8,-23 5,-7 12,-10 20,-10 5,0 9,1 13,3 3,2 6,4 7,7 2,3 3,7 4,10 1,3 1,6 1,9 0,2 0,4 0,5zm-43 -8l33 0c0,-4 -1,-8 -4,-12 -2,-4 -6,-6 -12,-6 -5,0 -9,2 -12,6 -2,3 -4,7 -5,12z"/>
 </g>
</svg>
