<?xml version="1.0" encoding="UTF-8"?>
<!DOCTYPE svg PUBLIC "-//W3C//DTD SVG 1.1//EN" "http://www.w3.org/Graphics/SVG/1.1/DTD/svg11.dtd">
<!-- Creator: CorelDRAW X7 -->
<svg xmlns="http://www.w3.org/2000/svg" xml:space="preserve" width="80px" height="96px" version="1.1" style="shape-rendering:geometricPrecision; text-rendering:geometricPrecision; image-rendering:optimizeQuality; fill-rule:evenodd; clip-rule:evenodd"
viewBox="0 0 53 64"
 xmlns:xlink="http://www.w3.org/1999/xlink">
 <defs>
  <style type="text/css">
   <![CDATA[
    .fil0 {fill:black;fill-rule:nonzero}
   ]]>
  </style>
 </defs>
 <g id="Слой_x0020_1">
  <metadata id="CorelCorpID_0Corel-Layer"/>
  <path class="fil0" d="M53 47c-1,3 -2,6 -4,9 -4,5 -7,8 -10,8 -1,0 -3,-1 -5,-1 -3,-1 -5,-2 -6,-2 -2,0 -4,1 -6,2 -2,0 -4,1 -5,1 -4,0 -8,-3 -11,-10 -4,-7 -6,-13 -6,-19 0,-6 1,-11 4,-15 3,-3 7,-5 11,-5 2,0 4,0 7,1 3,1 4,1 5,1 1,0 3,0 6,-1 2,-1 5,-2 6,-2 4,0 6,1 9,3 1,1 2,2 4,4 -2,1 -4,3 -5,4 -1,3 -2,5 -2,8 0,3 1,6 2,9 2,2 4,4 6,5zm-14 -45c0,1 0,3 -1,5 -1,2 -2,4 -4,5 -1,2 -2,2 -4,3 -1,0 -2,0 -4,1 0,-4 1,-8 3,-10 2,-3 5,-5 10,-6 0,0 0,0 0,0 0,1 0,1 0,1 0,0 0,0 0,0 0,0 0,1 0,1z"/>
 </g>
</svg>
